<svg id="Layer_1" data-name="Layer 1" xmlns="http://www.w3.org/2000/svg" viewBox="0 0 543.29 651.81"><defs><style>.cls-1{fill:#0071c6;}.cls-2{fill:#fff;}.cls-3{fill:#ffb600;}</style></defs><title>beeker</title><path class="cls-2" d="M272.46,110.15C122.88,110.15,1.63,231.4,1.63,381S122.88,651.81,272.46,651.81,543.29,530.56,543.29,381,422,110.15,272.46,110.15Zm0,507.12C142,617.27,36.17,511.48,36.17,381S142,144.69,272.46,144.69,508.75,250.48,508.75,381,403,617.27,272.46,617.27Z"/><path class="cls-3" d="M436.34,417.42c-56.16,62.64-75.6,8.64-116.64-50.73-58.89-85.18-95,113.37-168.48,29.13-39.45-45.25-63.32-30.05-77-6.28,4.49,105.6,91.5,189.83,198.2,189.83C382,579.37,470.85,490.55,470.85,381a199.8,199.8,0,0,0-3-34.3C463.85,369.56,455.23,396.35,436.34,417.42Z"/><rect class="cls-2" x="155.54" y="31.86" width="222.48" height="112.83"/><ellipse class="cls-2" cx="266.78" cy="31.86" rx="164.16" ry="31.86"/></svg>
