<svg xmlns="http://www.w3.org/2000/svg" viewBox="0 0 901.28 900.21"><defs><style>.cls-1{isolation:isolate;}.cls-2{fill:#ff3841;}.cls-3{fill:#ccc;}.cls-4{opacity:0.44;mix-blend-mode:multiply;}.cls-5{fill:#c10c0c;}.cls-6{font-size:173.32px;font-family:BerlinSansFBDemi-Bold, Berlin Sans FB Demi;font-weight:700;}.cls-6,.cls-8{fill:#fff;}.cls-7{fill:#bf2b2b;}</style></defs><title>flashcards-app-logo</title><g class="cls-1"><g id="Layer_1" data-name="Layer 1"><circle class="cls-2" cx="450.17" cy="450.13" r="450"/><path class="cls-3" d="M413.11,158.14a1.5,1.5,0,0,0,0-3,1.5,1.5,0,0,0,0,3Z" transform="translate(0 0)"/><g class="cls-4"><path class="cls-3" d="M575,816.8C326.5,815.07,126.43,612.21,128.16,363.68c.9-129.36,56.31-245.59,144.28-327.07C113.33,105.08,1.42,262.73.14,447-1.59,695.56,198.48,898.43,447,900.15A448.43,448.43,0,0,0,755.85,780.36,448.35,448.35,0,0,1,575,816.8Z" transform="translate(0 0)"/></g><g class="cls-4"><path class="cls-3" d="M575.18,83.55A448.31,448.31,0,0,1,756,120.13,448.37,448.37,0,0,0,447.22.1C198.7,1.63-1.52,204.34,0,452.87c1.14,184.3,112.92,342,272,410.63C184.08,782,128.76,665.68,128,536.32,126.43,287.79,326.66,85.08,575.18,83.55Z" transform="translate(0 0)"/></g><g class="cls-4"><path class="cls-3" d="M831.82,211.18C699.89.56,422.2-63.23,211.58,68.7,55.39,166.54-20.06,344.54,5.19,515.91c23.18-117.65,93-225.82,202.65-294.49C418.46,89.49,696.15,153.28,828.08,363.9a448.46,448.46,0,0,1,63.91,173A448.43,448.43,0,0,0,831.82,211.18Z" transform="translate(0 0)"/></g><g class="cls-4"><path class="cls-3" d="M897.09,396.66A448.73,448.73,0,0,1,686.33,685.4c-214.21,126-490,54.52-616-159.69A448.46,448.46,0,0,1,11.23,351,448.38,448.38,0,0,0,62.3,678.26C188.32,892.48,464.13,964,678.34,838,837.2,744.5,917.56,568.66,897.09,396.66Z" transform="translate(0 0)"/></g><g class="cls-4"><path class="cls-3" d="M451.71.56A448.38,448.38,0,0,0,143.59,122.2a448.41,448.41,0,0,1,180.6-37.52C572.72,84.91,774,286.57,773.76,535.1A448.71,448.71,0,0,1,631.46,863c158.69-69.42,269.65-227.74,269.82-412C901.52,202.45,700.24.79,451.71.56Z" transform="translate(0 0)"/></g><g class="cls-4"><path class="cls-3" d="M900.19,446.84c-1.38-184.31-113.37-341.9-272.52-410.28a448.72,448.72,0,0,1,144.45,327C774,612.08,574,815.05,325.51,816.92a448.54,448.54,0,0,1-180.84-36.34A448.47,448.47,0,0,0,453.58,900.2C702.1,898.34,902.05,695.36,900.19,446.84Z" transform="translate(0 0)"/></g><rect class="cls-5" x="509.99" y="302.16" width="137.08" height="247.22" rx="31.85" transform="matrix(0.87, 0.5, -0.5, 0.87, 290.39, -232.22)"/><text class="cls-6" transform="translate(522.43 450.12) rotate(31.94)">?</text><rect class="cls-7" x="278.21" y="278.17" width="227.24" height="375.89" rx="43.01" transform="translate(-142.63 174.32) rotate(-21.32)"/><path class="cls-8" d="M277.58,378.16c.77-6.26,1.61-14.92,7.31-18.82,1.9-1.3,4.91-2.4,7.19-1.41,2.57,1.11,4.09,4.76,6.16,6.56,4.71,4.11,10.76,3.95,16.15,1.37,3.87-1.85,8.4-6.6,12.9-6.33,3,.18,5.74,2.22,8.89,2.36a21.17,21.17,0,0,0,9.76-2.17c7-3.15,12.25-7.59,20-8.88,13.64-2.28,29.74-2.08,37.13-16.18,3.55-6.78-6.72-12.8-10.28-6s-11.24,8.36-18.14,9.24c-7.91,1-15.79,1.41-23.08,4.95-5.94,2.89-11.06,8.63-18,6.26-6.58-2.25-11.68-1.48-17.71,2-2.44,1.41-4.84,3.57-7.53,4.48-2.36.8-2.76-.45-4.3-2.37-4.17-5.2-9.38-8.13-16.2-7.32-16.39,1.95-20.5,18.5-22.21,32.27-.94,7.58,11,7.51,11.91,0Z" transform="translate(0 0)"/><path class="cls-8" d="M317.55,446.4l14.78-7.93c2.18-1.17,4.34-2.44,6.56-3.52,2.57-1.26,2.63-1.75,4.18.28,6.49,8.49,14.9,5.39,23.08,1.2A218.94,218.94,0,0,1,427.44,416c7.53-1.35,4.34-12.83-3.16-11.48a229.39,229.39,0,0,0-62.52,20.78,49.72,49.72,0,0,1-6.46,3.2c-2.42.79-2.06.53-3.35-1.45a11.4,11.4,0,0,0-11.19-5.18c-4.91.57-9.36,3.56-13.62,5.85l-15.6,8.37c-6.75,3.62-.75,13.9,6,10.28Z" transform="translate(0 0)"/><path class="cls-8" d="M356.24,526.15c8.72-5.26,17.74-10.63,28.27-8.46,4.73,1,9,1.79,13.87.82,4.47-.9,8.66-3.12,12.53-5.46,8.26-5,16.25-9.62,25.62-12.32a85,85,0,0,1,30.24-2.94c7.65.58,7.61-11.32,0-11.9-21-1.6-41.31,4-59,15.11-3.86,2.42-7.9,5.32-12.51,6-5,.75-10.06-1.7-15.09-1.86-10.88-.34-20.87,5.29-29.89,10.73-6.55,4-.58,14.25,6,10.28Z" transform="translate(0 0)"/><path class="cls-8" d="M388.2,600.48c2.79-7.86,17.41-7.64,23.93-8.39l39.34-4.51c19-2.18,40.85-3.65,52.68-20.91,4.35-6.33-6-12.29-10.28-6-5.43,7.92-15.13,10.83-24.1,12.57-11.84,2.29-24,3.1-36,4.47s-24.34,2.09-36.22,4.36c-9.17,1.75-17.56,6-20.83,15.26-2.56,7.23,8.94,10.35,11.48,3.16Z" transform="translate(0 0)"/></g></g></svg>